HIERARCHY
ROOT Hips
{
	OFFSET 0.000000 83.214638 0.000000
	CHANNELS 6 Xposition Yposition Zposition Xrotation Yrotation Zrotation
	JOINT Pelvis
	{
		OFFSET 0.000000 0.000000 0.000000
		CHANNELS 3 Xrotation Yrotation Zrotation
		JOINT LeftUpLeg
		{
			OFFSET 8.479700 -4.795502 -0.379100
			CHANNELS 3 Xrotation Yrotation Zrotation
			JOINT LeftLeg
			{
				OFFSET 0.024144 -32.555107 0.112900
				CHANNELS 3 Xrotation Yrotation Zrotation
				JOINT LeftFoot
				{
					OFFSET -0.024144 -32.638630 -3.012600
					CHANNELS 3 Xrotation Yrotation Zrotation
					JOINT LeftToeBase
					{
						OFFSET 0.970200 -13.225400 11.864200
						CHANNELS 3 Xrotation Yrotation Zrotation
						End Site
						{
							OFFSET 0.000000 12.319262 0.000000
						}
					}
					JOINT LFootTongue
					{
						OFFSET 1.142400 -1.059800 6.665200
						CHANNELS 3 Xrotation Yrotation Zrotation
						End Site
						{
							OFFSET 0.000000 12.319262 0.000000
						}
					}
				}
				JOINT LeftPantLeg
				{
					OFFSET 0.918482 -16.533964 -2.284700
					CHANNELS 3 Xrotation Yrotation Zrotation
					End Site
					{
						OFFSET 0.350399 24.744368 0.000000
					}
				}
			}
		}
		JOINT RightUpLeg
		{
			OFFSET -8.479700 -4.795502 -0.379100
			CHANNELS 3 Xrotation Yrotation Zrotation
			JOINT RightLeg
			{
				OFFSET -0.023144 -32.555092 0.112900
				CHANNELS 3 Xrotation Yrotation Zrotation
				JOINT RightFoot
				{
					OFFSET 0.023144 -32.638641 -3.012700
					CHANNELS 3 Xrotation Yrotation Zrotation
					JOINT RightToeBase
					{
						OFFSET -0.970200 -13.225400 11.864200
						CHANNELS 3 Xrotation Yrotation Zrotation
						End Site
						{
							OFFSET 0.000000 12.319244 0.000000
						}
					}
					JOINT RFootTongue
					{
						OFFSET -1.142200 -1.059800 6.665200
						CHANNELS 3 Xrotation Yrotation Zrotation
						End Site
						{
							OFFSET 0.000000 12.319243 0.000000
						}
					}
				}
				JOINT RightPantLeg
				{
					OFFSET -0.919482 -16.533978 -2.284800
					CHANNELS 3 Xrotation Yrotation Zrotation
					End Site
					{
						OFFSET -0.350400 24.744419 0.000000
					}
				}
			}
		}
	}
	JOINT Spine
	{
		OFFSET 0.000000 7.722000 1.166200
		CHANNELS 3 Xrotation Yrotation Zrotation
		JOINT Spine1
		{
			OFFSET 0.000000 12.024101 0.248800
			CHANNELS 3 Xrotation Yrotation Zrotation
			JOINT Spine2
			{
				OFFSET 0.000000 11.502998 -0.491200
				CHANNELS 3 Xrotation Yrotation Zrotation
				JOINT Neck
				{
					OFFSET 0.000000 18.430702 -3.123100
					CHANNELS 3 Xrotation Yrotation Zrotation
					JOINT Head
					{
						OFFSET 0.000000 9.051102 1.034000
						CHANNELS 3 Xrotation Yrotation Zrotation
						JOINT HairB
						{
							OFFSET 0.208400 24.786102 24.822300
							CHANNELS 3 Xrotation Yrotation Zrotation
							End Site
							{
								OFFSET 0.000000 32.263779 0.000000
							}
						}
						JOINT HairA
						{
							OFFSET -7.081100 24.428299 23.196600
							CHANNELS 3 Xrotation Yrotation Zrotation
							End Site
							{
								OFFSET 0.000000 32.263779 0.000000
							}
						}
						JOINT Hat
						{
							OFFSET 16.728800 15.048294 -15.439601
							CHANNELS 3 Xrotation Yrotation Zrotation
							End Site
							{
								OFFSET 0.000000 32.263779 0.000000
							}
						}
					}
				}
				JOINT LeftShoulder
				{
					OFFSET 6.197800 13.665199 -4.064700
					CHANNELS 3 Xrotation Yrotation Zrotation
					JOINT LeftArm
					{
						OFFSET 7.778100 -0.187103 -1.709300
						CHANNELS 3 Xrotation Yrotation Zrotation
						JOINT LeftForeArm
						{
							OFFSET 22.049376 0.000000 0.000000
							CHANNELS 3 Xrotation Yrotation Zrotation
							JOINT LeftHand
							{
								OFFSET 23.009392 0.000000 0.000000
								CHANNELS 3 Xrotation Yrotation Zrotation
								JOINT LeftHandThumb1
								{
									OFFSET 3.507191 -2.063065 3.133727
									CHANNELS 3 Xrotation Yrotation Zrotation
									JOINT LeftHandThumb2
									{
										OFFSET 3.101337 -1.790558 1.790558
										CHANNELS 3 Xrotation Yrotation Zrotation
										JOINT LeftHandThumb3
										{
											OFFSET 3.058640 -1.765907 1.765906
											CHANNELS 3 Xrotation Yrotation Zrotation
											End Site
											{
												OFFSET -0.415260 3.926476 -0.049563
											}
										}
									}
								}
								JOINT LeftHandIndex1
								{
									OFFSET 11.334419 -0.901459 3.706815
									CHANNELS 3 Xrotation Yrotation Zrotation
									JOINT LeftHandIndex2
									{
										OFFSET 3.283112 0.000000 0.000000
										CHANNELS 3 Xrotation Yrotation Zrotation
										JOINT LeftHandIndex3
										{
											OFFSET 3.323853 0.000000 0.000000
											CHANNELS 3 Xrotation Yrotation Zrotation
											End Site
											{
												OFFSET -1.135597 3.097809 0.402452
											}
										}
									}
								}
								JOINT LeftHandMiddle1
								{
									OFFSET 11.335861 0.000000 0.000000
									CHANNELS 3 Xrotation Yrotation Zrotation
									JOINT LeftHandMiddle2
									{
										OFFSET 3.410492 0.000000 0.000000
										CHANNELS 3 Xrotation Yrotation Zrotation
										JOINT LeftHandMiddle3
										{
											OFFSET 3.312172 0.000000 0.000000
											CHANNELS 3 Xrotation Yrotation Zrotation
											End Site
											{
												OFFSET -1.150200 3.080154 0.400270
											}
										}
									}
								}
								JOINT LeftHandRing1
								{
									OFFSET 11.514786 -0.013176 -3.003090
									CHANNELS 3 Xrotation Yrotation Zrotation
									JOINT LeftHandRing2
									{
										OFFSET 3.053307 0.000000 0.000000
										CHANNELS 3 Xrotation Yrotation Zrotation
										JOINT LeftHandRing3
										{
											OFFSET 3.295807 0.000000 0.000000
											CHANNELS 3 Xrotation Yrotation Zrotation
											End Site
											{
												OFFSET -1.281006 3.013344 0.375733
											}
										}
									}
								}
								JOINT LeftHandPinky1
								{
									OFFSET 10.518692 -0.960396 -5.730441
									CHANNELS 3 Xrotation Yrotation Zrotation
									JOINT LeftHandPinky2
									{
										OFFSET 2.861649 0.000000 0.000000
										CHANNELS 3 Xrotation Yrotation Zrotation
										JOINT LeftHandPinky3
										{
											OFFSET 2.863380 0.000000 0.000000
											CHANNELS 3 Xrotation Yrotation Zrotation
											End Site
											{
												OFFSET -0.843597 2.711159 0.369971
											}
										}
									}
								}
							}
							JOINT LSleeve
							{
								OFFSET 6.676277 -0.344902 -1.011730
								CHANNELS 3 Xrotation Yrotation Zrotation
								End Site
								{
									OFFSET 0.000000 14.885353 0.000000
								}
							}
						}
					}
				}
				JOINT RightShoulder
				{
					OFFSET -6.197800 13.665199 -4.064700
					CHANNELS 3 Xrotation Yrotation Zrotation
					JOINT RightArm
					{
						OFFSET -7.778100 -0.187103 -1.709300
						CHANNELS 3 Xrotation Yrotation Zrotation
						JOINT RightForeArm
						{
							OFFSET -22.049376 0.000000 0.000000
							CHANNELS 3 Xrotation Yrotation Zrotation
							JOINT RightHand
							{
								OFFSET -23.009392 0.000000 0.000000
								CHANNELS 3 Xrotation Yrotation Zrotation
								JOINT RightHandThumb1
								{
									OFFSET -3.507191 -2.063065 3.133727
									CHANNELS 3 Xrotation Yrotation Zrotation
									JOINT RightHandThumb2
									{
										OFFSET -3.101337 -1.790558 1.790558
										CHANNELS 3 Xrotation Yrotation Zrotation
										JOINT RightHandThumb3
										{
											OFFSET -3.058640 -1.765907 1.765906
											CHANNELS 3 Xrotation Yrotation Zrotation
											End Site
											{
												OFFSET 0.415260 3.926476 -0.049563
											}
										}
									}
								}
								JOINT RightHandIndex1
								{
									OFFSET -11.334419 -0.901459 3.706815
									CHANNELS 3 Xrotation Yrotation Zrotation
									JOINT RightHandIndex2
									{
										OFFSET -3.283112 0.000000 0.000000
										CHANNELS 3 Xrotation Yrotation Zrotation
										JOINT RightHandIndex3
										{
											OFFSET -3.323853 0.000000 0.000000
											CHANNELS 3 Xrotation Yrotation Zrotation
											End Site
											{
												OFFSET 1.135597 3.097809 0.402452
											}
										}
									}
								}
								JOINT RightHandMiddle1
								{
									OFFSET -11.335861 0.000000 0.000000
									CHANNELS 3 Xrotation Yrotation Zrotation
									JOINT RightHandMiddle2
									{
										OFFSET -3.410492 0.000000 0.000000
										CHANNELS 3 Xrotation Yrotation Zrotation
										JOINT RightHandMiddle3
										{
											OFFSET -3.312172 0.000000 0.000000
											CHANNELS 3 Xrotation Yrotation Zrotation
											End Site
											{
												OFFSET 1.150200 3.080154 0.400270
											}
										}
									}
								}
								JOINT RightHandRing1
								{
									OFFSET -11.514786 -0.013176 -3.003090
									CHANNELS 3 Xrotation Yrotation Zrotation
									JOINT RightHandRing2
									{
										OFFSET -3.053307 0.000000 0.000000
										CHANNELS 3 Xrotation Yrotation Zrotation
										JOINT RightHandRing3
										{
											OFFSET -3.295807 0.000000 0.000000
											CHANNELS 3 Xrotation Yrotation Zrotation
											End Site
											{
												OFFSET 1.281006 3.013344 0.375733
											}
										}
									}
								}
								JOINT RightHandPinky1
								{
									OFFSET -10.518692 -0.960396 -5.730441
									CHANNELS 3 Xrotation Yrotation Zrotation
									JOINT RightHandPinky2
									{
										OFFSET -2.861649 0.000000 0.000000
										CHANNELS 3 Xrotation Yrotation Zrotation
										JOINT RightHandPinky3
										{
											OFFSET -2.863380 0.000000 0.000000
											CHANNELS 3 Xrotation Yrotation Zrotation
											End Site
											{
												OFFSET 0.843597 2.711159 0.369971
											}
										}
									}
								}
							}
							JOINT RSleeve
							{
								OFFSET -6.676277 -0.344902 -1.011730
								CHANNELS 3 Xrotation Yrotation Zrotation
								End Site
								{
									OFFSET 0.000000 14.885353 0.000000
								}
							}
						}
					}
				}
				JOINT Backpack
				{
					OFFSET 0.000000 -2.471497 36.677502
					CHANNELS 3 Xrotation Yrotation Zrotation
					End Site
					{
						OFFSET 0.000000 20.427315 0.000000
					}
				}
				JOINT Hood
				{
					OFFSET 0.000000 18.754097 -10.431000
					CHANNELS 3 Xrotation Yrotation Zrotation
					JOINT Hood1
					{
						OFFSET 0.000000 -5.011002 -7.685901
						CHANNELS 3 Xrotation Yrotation Zrotation
						End Site
						{
							OFFSET 0.000000 9.175140 0.000000
						}
					}
				}
				JOINT LHoodieString
				{
					OFFSET 5.250500 16.397697 3.089900
					CHANNELS 3 Xrotation Yrotation Zrotation
					JOINT LHoodieString1
					{
						OFFSET 0.257700 -6.364304 3.694600
						CHANNELS 3 Xrotation Yrotation Zrotation
						JOINT LHoodieString2
						{
							OFFSET 0.000000 -9.643799 2.679100
							CHANNELS 3 Xrotation Yrotation Zrotation
							End Site
							{
								OFFSET 0.000000 10.009018 0.000000
							}
						}
					}
				}
				JOINT RHoodieString
				{
					OFFSET -5.250500 16.397697 3.089900
					CHANNELS 3 Xrotation Yrotation Zrotation
					JOINT RHoodieString1
					{
						OFFSET -0.257700 -6.364304 3.694600
						CHANNELS 3 Xrotation Yrotation Zrotation
						JOINT RHoodieString2
						{
							OFFSET 0.000000 -9.643799 2.679100
							CHANNELS 3 Xrotation Yrotation Zrotation
							End Site
							{
								OFFSET 0.000000 10.009018 0.000000
							}
						}
					}
				}
			}
			JOINT LBackpack_Strap
			{
				OFFSET 15.223200 -7.719803 -6.610900
				CHANNELS 3 Xrotation Yrotation Zrotation
				End Site
				{
					OFFSET 0.000000 16.040596 0.000000
				}
			}
			JOINT RBackpack_Strap
			{
				OFFSET -15.223000 -7.719803 -6.610900
				CHANNELS 3 Xrotation Yrotation Zrotation
				End Site
				{
					OFFSET 0.000000 16.040596 0.000000
				}
			}
		}
	}
	JOINT BoyFacialAnim_Joint
	{
		OFFSET 1.000000 -82.208099 -1.550900
		CHANNELS 3 Xrotation Yrotation Zrotation
		End Site
		{
			OFFSET 0.000000 30.012791 0.000000
		}
	}
}
MOTION
Frames: 5
Frame Time: 0.033333
8.591654 82.403549 3.945678 3.379141 -110.501765 5.494179 0.000000 -0.000000 0.000000 -11.828126 -0.295970 -9.859260 33.324701 3.779128 0.285094 5.908057 9.131298 1.678268 -0.000001 -0.000000 -0.000000 -0.000001 -0.000000 0.000000 0.000000 0.000001 -0.000000 -32.541757 12.635311 7.989417 36.583999 17.149475 1.417428 21.537842 0.139194 7.510189 -0.000003 -0.000000 0.000001 -0.000003 -0.000000 0.000001 0.000000 -0.000000 0.000000 6.898191 0.693363 -0.948402 -3.455646 1.135060 0.252793 -3.458005 1.187680 0.166301 8.135799 34.860678 -7.116161 -8.104088 36.272935 2.433837 -0.000000 -0.000001 -0.000000 -0.000000 -0.000001 -0.000000 -0.000000 -0.000001 -0.000000 2.163322 2.108373 -2.234804 -4.144308 16.375677 -64.913927 13.590710 -8.673205 0.088276 -0.646395 3.680826 -1.707399 10.369264 -6.010677 18.428195 -5.266724 22.253586 -6.347074 -0.000001 0.000000 0.000000 1.521377 -0.697336 -2.300488 -1.933773 2.110489 -13.405708 0.000001 -0.000000 -0.000002 -1.983456 4.912200 -8.296206 0.064483 4.474521 -22.252790 0.000002 -0.000001 0.000000 -4.004449 11.949997 -5.885127 3.377804 3.717854 -28.271271 -0.000001 -0.000000 -0.000004 -3.649747 16.620384 -16.293304 9.336996 2.613841 -28.897673 0.000001 -0.000000 -0.000000 -0.000001 0.000001 0.000000 2.345510 5.486837 3.497293 -1.771023 -10.050677 71.843543 -7.734458 17.394209 0.834154 -0.267193 -0.384692 -4.241577 15.709734 -1.975289 -17.048128 -11.441614 -16.658386 7.385712 -0.000001 0.000002 -0.000001 2.309307 -3.105153 6.900188 -2.151028 -2.427712 3.779512 -0.000000 -0.000001 0.000003 -1.985695 -5.676172 11.633820 0.251219 -5.064800 11.472650 -0.000001 0.000001 0.000002 -4.978750 -10.109243 9.527794 4.019097 -4.032574 18.796232 0.000001 0.000000 0.000002 -6.472337 -11.327437 20.741983 10.698715 -2.542795 18.553630 -0.000001 -0.000001 -0.000002 0.000001 -0.000001 0.000001 -0.000000 0.000003 0.000000 -0.000000 0.000003 0.000000 -0.000000 0.000003 0.000000 -0.000000 0.000003 0.000000 -0.000000 0.000003 -0.000000 -0.000000 0.000002 -0.000000 -0.000000 0.000003 0.000000 -0.000000 0.000003 -0.000000 -0.000000 0.000002 -0.000000 -0.000000 0.000000 0.000000 -0.000000 0.000000 0.000000 0.000000 -0.000000 0.000000 
8.859465 82.558151 3.774352 3.102229 -115.179925 5.002845 0.000000 -0.000001 -0.000000 -10.835521 1.852715 -9.252676 32.272101 5.579204 0.424324 5.813436 9.121468 0.912944 0.000001 -0.000000 0.000000 0.000001 -0.000000 0.000000 0.000003 -0.000003 -0.000000 -32.151719 11.569592 6.592225 34.934700 9.570213 0.781037 25.156739 -0.380350 5.251460 0.000000 0.000000 0.000000 0.000000 0.000000 0.000000 0.000000 -0.000000 0.000000 8.200824 0.981108 -0.345583 -3.616573 1.347719 0.011733 -3.605007 1.385500 -0.117807 7.579583 35.566940 -7.515539 -8.151145 36.969970 2.284174 -0.000000 0.000002 0.000000 -0.000000 0.000002 0.000000 -0.000000 0.000002 0.000000 2.141223 2.730734 -2.649643 -6.090701 16.599347 -63.870199 12.438055 -8.564724 0.161637 -0.648805 3.878341 -0.562893 10.316197 -6.756833 18.407495 -5.719266 21.637396 -6.385166 -0.000000 -0.000001 -0.000001 1.556617 -1.036912 -1.659037 -1.938986 2.118927 -12.739855 -0.000003 0.000002 -0.000003 -1.985857 4.931763 -7.721444 0.068437 4.490681 -21.662039 -0.000001 0.000000 -0.000001 -4.019122 12.155824 -5.314282 3.393588 3.727556 -27.700794 0.000000 -0.000000 -0.000002 -3.537508 17.275850 -15.757178 9.373694 2.614271 -28.279589 0.000001 0.000001 -0.000000 0.000000 0.000002 -0.000002 2.321032 6.476244 3.304861 -0.617919 -9.556908 71.666812 -7.736052 16.412562 0.128441 -0.241053 -1.155920 -4.728194 15.705772 -1.942156 -17.040320 -11.400004 -16.726927 7.380019 0.000002 0.000002 0.000001 2.307129 -3.083764 6.842997 -2.151576 -2.428982 3.878210 -0.000003 0.000001 0.000002 -1.986066 -5.676400 11.557045 0.253264 -5.065775 11.566777 0.000002 0.000001 -0.000000 -4.978455 -10.109362 9.481031 4.018408 -4.034059 18.897622 0.000000 -0.000000 0.000000 -6.471941 -11.327430 20.642208 10.699322 -2.543746 18.642166 -0.000001 -0.000001 0.000000 -0.000003 -0.000003 -0.000001 -0.000000 0.000002 -0.000000 -0.000000 0.000002 -0.000000 -0.000000 0.000002 -0.000000 -0.000000 0.000002 -0.000000 -0.000000 0.000002 -0.000000 0.000000 0.000000 -0.000000 -0.000000 0.000002 -0.000000 -0.000000 0.000002 -0.000000 0.000000 0.000000 -0.000000 0.000000 0.000000 -0.000000 0.000000 0.000000 -0.000000 0.000000 -0.000001 -0.000000 
9.008090 82.789398 3.393917 3.751531 -118.799133 5.030620 0.000000 0.000001 -0.000000 -9.560257 2.689509 -8.477359 31.198204 8.754717 0.670989 5.930648 7.890061 -0.086137 0.000001 -0.000001 -0.000000 0.000001 -0.000001 0.000000 0.000000 -0.000000 0.000000 -30.817411 10.416147 4.717328 31.391027 2.679703 0.217286 29.893351 -1.097934 3.816589 0.000000 0.000001 0.000000 0.000000 0.000001 0.000000 0.000000 0.000000 0.000000 9.732514 1.040605 0.402732 -3.823877 1.256605 -0.054171 -3.796837 1.301074 -0.206507 6.970186 36.033640 -7.579647 -7.631706 37.468181 2.061112 -0.000000 -0.000003 -0.000000 -0.000000 -0.000003 -0.000000 -0.000000 -0.000003 -0.000000 2.102454 3.024453 -2.944623 -7.110247 16.398719 -63.678427 8.982453 -9.023387 -0.569143 -0.681117 3.350701 3.838304 10.226110 -7.957520 18.373865 -6.444317 20.646028 -6.459251 -0.000000 -0.000001 -0.000001 1.629406 -1.582136 -0.625252 -1.949096 2.132308 -11.667718 -0.000001 -0.000000 -0.000005 -1.989615 4.963303 -6.795935 0.074134 4.516972 -20.710863 -0.000000 -0.000000 0.000002 -4.051654 12.486776 -4.393079 3.418230 3.743277 -26.782097 -0.000000 -0.000000 -0.000000 -3.383631 18.336138 -14.888364 9.432982 2.616585 -27.284459 0.000000 0.000000 -0.000000 -0.000000 0.000000 -0.000001 2.290165 6.875794 2.928652 0.146555 -8.728416 71.747244 -5.102139 14.906072 -1.249977 -0.208714 -2.196649 -6.106354 15.699110 -1.889103 -17.027964 -11.320048 -16.858681 7.369068 -0.000002 0.000003 -0.000004 2.303738 -3.049320 6.750915 -2.152392 -2.431211 4.067902 0.000001 0.000000 0.000002 -1.986686 -5.675825 11.433454 0.255345 -5.067865 11.747461 0.000000 0.000001 0.000002 -4.978001 -10.108828 9.405721 4.017372 -4.037385 19.092392 -0.000003 -0.000001 0.000004 -6.472878 -11.326634 20.481371 10.700325 -2.545477 18.812112 -0.000000 -0.000001 0.000000 -0.000001 -0.000001 -0.000000 0.000000 -0.000000 -0.000000 0.000000 -0.000000 -0.000000 0.000000 -0.000000 -0.000000 0.000000 -0.000000 -0.000000 0.000000 -0.000000 -0.000000 -0.000000 -0.000000 -0.000000 0.000000 -0.000000 -0.000000 0.000000 -0.000000 -0.000000 -0.000000 -0.000000 -0.000000 0.000000 -0.000001 -0.000000 0.000000 -0.000001 -0.000000 0.000000 0.000001 -0.000000 
9.048023 83.069473 2.824337 4.711999 -121.768790 5.071969 -0.000000 0.000002 0.000000 -7.965265 2.822812 -7.497143 30.038574 10.632637 0.819834 6.107258 8.056547 -1.326359 -0.000003 -0.000001 0.000000 -0.000003 -0.000001 0.000000 -0.000001 -0.000000 0.000000 -28.896212 8.609973 2.901049 27.220370 -3.797781 -0.309533 33.096255 -1.909731 1.652400 -0.000001 -0.000000 -0.000001 -0.000001 -0.000000 -0.000001 -0.000000 -0.000002 -0.000000 11.204991 1.026478 1.171562 -3.997924 1.029775 0.014735 -3.958941 1.101313 -0.143461 6.227860 36.147700 -7.252378 -7.041577 37.627970 1.899621 -0.000000 -0.000001 -0.000000 -0.000000 -0.000001 -0.000000 -0.000000 -0.000001 -0.000000 2.035173 3.211318 -2.912575 -7.566591 15.654037 -64.414804 7.485288 -9.613087 -1.002999 -0.666798 3.295033 6.161278 10.117552 -9.308724 18.335322 -7.256200 19.530835 -6.561236 0.000000 -0.000001 0.000001 1.735103 -2.193592 0.540840 -1.961241 2.147049 -10.460121 -0.000001 -0.000000 -0.000004 -1.993695 4.998765 -5.753569 0.079544 4.546926 -19.639459 0.000002 -0.000001 0.000002 -4.101433 12.858539 -3.352262 3.445948 3.762764 -25.747421 -0.000001 0.000000 -0.000000 -3.250628 19.536778 -13.900516 9.500003 2.621674 -26.163692 0.000001 0.000001 0.000002 0.000001 0.000001 -0.000002 2.223598 6.870778 2.600815 0.661939 -8.783473 71.850414 -2.548319 13.348129 -2.298076 -0.171768 -1.976175 -6.730845 15.691730 -1.829272 -17.014010 -11.205122 -17.048074 7.354025 0.000005 -0.000002 -0.000002 2.299953 -3.010498 6.647237 -2.153443 -2.434168 4.340436 -0.000000 -0.000000 0.000004 -1.987351 -5.674905 11.294262 0.256271 -5.070753 12.007014 0.000003 -0.000001 0.000005 -4.977482 -10.108128 9.320909 4.016828 -4.038981 19.372163 -0.000003 0.000001 0.000002 -6.473979 -11.325576 20.300190 10.701621 -2.546614 19.056105 -0.000003 -0.000000 0.000000 -0.000002 -0.000001 0.000002 -0.000000 -0.000001 0.000000 -0.000000 -0.000001 0.000000 -0.000000 -0.000001 0.000000 -0.000000 -0.000001 0.000000 -0.000000 -0.000001 -0.000000 -0.000000 -0.000001 0.000000 -0.000000 -0.000001 0.000000 -0.000000 -0.000001 -0.000000 -0.000000 -0.000001 0.000000 -0.000000 -0.000001 -0.000000 -0.000000 -0.000001 -0.000000 -0.000000 0.000002 0.000000 
8.986991 83.244392 2.162935 5.272449 -124.448369 4.761221 -0.000000 0.000002 0.000000 -6.610391 2.841231 -6.573314 29.304595 11.223899 0.869533 5.997596 9.454094 -2.636533 0.000002 -0.000000 0.000000 0.000002 -0.000000 0.000000 0.000000 0.000000 0.000001 -27.204806 6.612430 1.109645 22.696300 -9.377055 -0.770534 35.707420 -1.598989 -0.620125 0.000003 0.000001 -0.000002 0.000003 0.000001 -0.000002 -0.000001 0.000002 0.000000 12.130969 0.990765 1.965896 -4.103016 0.779036 0.028402 -4.053584 0.878652 -0.120888 5.499817 35.870227 -6.331666 -6.749698 37.540161 1.626335 -0.000000 -0.000002 -0.000000 -0.000000 -0.000002 -0.000000 -0.000000 -0.000002 -0.000000 1.936910 3.316806 -2.405620 -7.737282 14.599767 -65.822246 6.976332 -10.097625 -1.223199 -0.629256 3.247729 6.416204 10.014847 -10.507366 18.300220 -7.973396 18.542213 -6.667885 -0.000001 -0.000001 0.000000 1.849871 -2.733423 1.577979 -1.972519 2.159746 -9.387910 -0.000000 -0.000000 -0.000002 -1.997349 5.030211 -4.828078 0.083392 4.573881 -18.688157 0.000002 -0.000000 0.000000 -4.157341 13.187519 -2.425260 3.469595 3.780067 -24.828713 -0.000001 -0.000001 -0.000000 -3.169125 20.607649 -13.013921 9.559644 2.628400 -25.168684 0.000000 0.000000 -0.000000 -0.000000 0.000001 0.000001 2.131013 6.699276 2.710581 1.358061 -8.844554 71.745974 -2.677366 12.053094 -2.629114 -0.136044 -0.876287 -6.359857 15.685360 -1.776081 -17.001710 -11.055958 -17.287521 7.333952 0.000001 0.000000 0.000001 2.296555 -2.976044 6.555163 -2.154686 -2.437724 4.687822 -0.000000 -0.000000 0.000004 -1.987962 -5.674229 11.170708 0.257340 -5.072509 12.337843 0.000003 0.000001 0.000002 -4.977023 -10.107594 9.245584 4.016771 -4.038981 19.728740 0.000003 0.000000 0.000000 -6.474391 -11.324818 20.139436 10.703193 -2.546574 19.366800 -0.000003 -0.000000 0.000000 -0.000000 -0.000001 0.000001 0.000000 0.000000 -0.000000 0.000000 0.000000 -0.000000 0.000000 0.000000 -0.000000 0.000000 0.000000 -0.000000 0.000000 0.000000 -0.000000 0.000000 0.000000 -0.000000 0.000000 0.000000 -0.000000 0.000000 0.000000 -0.000000 0.000000 0.000000 -0.000000 -0.000000 -0.000002 -0.000000 -0.000000 -0.000002 -0.000000 -0.000000 0.000002 0.000000 
